<?xml version="1.0" encoding="utf-8"?>
<svg version="1.1" xmlns="http://www.w3.org/2000/svg" xmlns:xlink="http://www.w3.org/1999/xlink" x="0px"
	 y="0px" viewBox="0 0 224.9 393" enable-background="new 0 0 224.9 393" xml:space="preserve">
<g>
	<path fill="#eeeeee" d="M112.3,142c23,0,41.8-18.7,41.8-41.8c0-23-18.7-41.8-41.8-41.8c-23,0-41.8,18.7-41.8,41.8S89.3,142,112.3,142L112.3,142z
		 M112.3,142"/>
	<g>
		<defs>
			<rect fill="#eeeeee" id="SVGID_1_" x="0" width="224.9" height="393"/>
		</defs>
		<clipPath fill="#eeeeee" id="SVGID_2_">
			<use fill="#eeeeee" xlink:href="#SVGID_1_"  overflow="visible"/>
		</clipPath>
		<path fill="#eeeeee" clip-path="url(#SVGID_2_)" d="M41.3,200.4h142.1l-21.8-50.9l50.9,21.8V29.1l-50.9,21.7L183.4,0H41.3L63,50.9L12.1,29.1
			v142.1L63,149.5L41.3,200.4z M49.8,100.2c0-34.5,28-62.5,62.5-62.5c34.5,0,62.5,28,62.5,62.5s-28,62.5-62.5,62.5
			C77.8,162.7,49.8,134.7,49.8,100.2L49.8,100.2z M49.8,100.2"/>
		<path fill="#eeeeee" clip-path="url(#SVGID_2_)" d="M222.8,359.1l-97.1-151.7H98.9L1.8,359.1c-3.4,5.3-1.8,12.4,3.5,15.8c1.9,1.2,4,1.8,6.1,1.8
			c3.8,0,7.4-1.9,9.6-5.3l80.3-125.5v135.2c0,6.1,4.9,11,11,11c6.1,0,11-4.9,11-11V245.9l80.3,125.5c2.2,3.4,5.9,5.3,9.6,5.3
			c2.1,0,4.2-0.6,6.1-1.8C224.7,371.5,226.2,364.4,222.8,359.1L222.8,359.1z M222.8,359.1"/>
	</g>
</g>
</svg>
