<?xml version="1.0" encoding="utf-8"?>
<!-- Generator: Adobe Illustrator 18.1.0, SVG Export Plug-In . SVG Version: 6.00 Build 0)  -->
<svg version="1.1" id="レイヤー_1" xmlns="http://www.w3.org/2000/svg" xmlns:xlink="http://www.w3.org/1999/xlink" x="0px"
	 y="0px" viewBox="0 0 331.9 389" enable-background="new 0 0 331.9 389" xml:space="preserve">
<g>
	<g>
		<defs>
			<rect id="SVGID_1_" x="0" y="0.1" width="331.9" height="388.9"/>
		</defs>
		<clipPath id="SVGID_2_">
			<use xlink:href="#SVGID_1_"  overflow="visible"/>
		</clipPath>
		<path clip-path="url(#SVGID_2_)" fill="#343434" d="M291.8,220.5c-11.9-11.2-22.6-14.1-35.3-14.1c0,0-5.1,0.1-1,5.3c5.4,6.8,44.7,58.1,44.1,100.1
			c-0.7,48.6-48.8,45.8-48.8,45.8c20.2-38.5,10-74.9,6.9-87.6c-6-23.5-17.7-46.3-35.3-68.3c-21.8-27.4-43.7-40.4-65.8-39
			c-9.5-16.3-17.9-29.4-25.2-40.2c40.1-35.8,14-53.1-8.7-122.6c-5.3,14.7-9.5,25.7-12.6,32.7c-16.1-2-51.7-2-67.7,0
			c-3.2-7-7.4-17.9-12.6-32.7C6.8,69.7-19.4,86.5,21.2,122.4c4.3,81.7,21.2,103.5,48.5,143c22.4,32.5,16.9,44.1,27.4,89
			c-79.7,50.2,55.4,31,76.4,29.9c54-2.6,166.5,29.6,157.6-85.2C328.4,265.9,313.3,240.9,291.8,220.5L291.8,220.5z M46.7,76.1
			c-24.7-1.9-21.2-15.7-9-15.3c7,0.2,15.6,5.1,21.6,15.3H46.7z M105.2,76.1H92.6c6-10.2,14.6-15,21.6-15.3
			C126.4,60.4,129.9,74.2,105.2,76.1L105.2,76.1z M105.2,76.1"/>
	</g>
</g>
</svg>
