<?xml version="1.0" encoding="utf-8"?>
<!-- Generator: Adobe Illustrator 18.1.0, SVG Export Plug-In . SVG Version: 6.00 Build 0)  -->
<svg version="1.1" id="レイヤー_1" xmlns="http://www.w3.org/2000/svg" xmlns:xlink="http://www.w3.org/1999/xlink" x="0px"
	 y="0px" viewBox="0 0 146.8 217.6" enable-background="new 0 0 146.8 217.6" xml:space="preserve">
<g>
	<path fill="#eeeeee" d="M146.8,180.7l-2.7-0.9v-57.6l-4.1-5.9l4.1-5.9l-0.9-48.7l-5.6-18.3l-5-5l-1.5-8.9l-15.3-18.6C110.5,5.5,103,2.1,93.5,0.7
		L97,1.8c-0.8,3.4-2.6,5.8-5.3,7.2c-2.8,1.5-6,2.2-9.7,2.2h-3.8L69,13c-1,0.8-1.2,1.5-0.6,2.1c0.6,0.8,0,1.7-1.8,2.7L61,20.3
		c-2,1.2-3,2.8-3,4.7c0,2.2,0.2,4.1,0.6,5.8c0.4,1.7,1,3.4,1.8,5.2c1.8,3.3,3.8,5.5,6.2,6.5l4.1,1.2l5.3,1.8h-6.5l-0.3,3.8l0.3,7.7
		l-2.1-5.6l-2.1-5.9l-5.3-5.3c-3-3.4-4.4-6.1-4.4-8.3l-1.2-5L51.6,31l-2.9,2.7c-0.6,0.8-1.8,1.2-3.5,1.2c-1.6,0.2-3,0.8-4.1,1.9
		c-1.2,1.1-2.1,2.7-2.7,4.9l-1.8,5.6l-3.8,5.3c-0.9,0.9-1.7,1.9-2.4,2.8l2.1-4l1.6-5.9c0.4-2.8,1.2-5.3,2.4-7.5
		c1.3-2.3,2.1-4.3,2.4-6l-4.7,2.4c-2.2,1.2-4,1.8-5.6,1.8c-1.2-0.4-2.4-1.2-3.5-2.4c2.1-0.4,4.2-1.1,6.3-2.1c2.1-1.6,4.1-2.4,6-2.4
		l3.7,0.9l3.3,0.9c1.4-0.2,3.4-1.8,5.8-4.7l4.2-5.3l9-8l-3.5-0.9l-4.7-0.9c-2.9,0-5.5,0.9-7.7,2.7l-7.4,7.1c0.6-2.9,1.9-5.9,3.8-8.8
		c2-3,3.7-4.4,5.3-4.4H61l6.2,0.9l5.3,0.9c3.7,0,7.7-0.6,11.8-1.9c3.9-1.7,6.2-3.4,6.8-5.3V0.4C88.6,0.1,85.8,0,83,0
		C67.9,0,54.9,2.3,44.2,6.8c-10.8,4.6-20.6,12.7-29.4,24.3l3,14.3c-0.6-0.6-1.7-0.9-3.2-0.9c-1.6,0-4.1,0.9-7.7,2.7l-2.4,1.5
		l0.3,1.5l1.5,6.8l-3.2,7.4L1.5,95.7l11.5,7.4l-13,4.4l1.5,14.8v23.4L0,154.9l2.9,60.4h5.8l5.7-9.7L13,215.7l5.3-14.9l-1.8,14.5
		c3.1,1.6,7.3,2.4,12.4,2.4c4.7,0,9.7-0.4,15-1.2l3.5-1.2l1.8-13.3l2.1,13.3l12.7,1.2l16.5,1.2h5c1.2,0,2.6-0.2,4.1-0.6
		c1.6-0.4,2.7-0.6,3.5-0.6c3.1,0,6.5-0.6,10-1.8c1-1.2,1.9-3.7,2.7-7.7l0.9-5.6l1.5,12.1l1.8,0.9c3.7,1.4,7.6,2.1,11.5,2.1h7.4
		l7.7-2.4v-6.2c0-2.1-0.2-3.7-0.5-4.9l3.7,12.3l2.1-1.8l-2.1-9.4l5.3,9.4L146.8,180.7z M91.6,100.1c-2,1.7-11.9,0-14.7,0l2.2,29.6
		H66.2l1.8-29.6H52.3c-0.3,0-0.1-6.3-0.1-7c0-2.7,0.6-1.9,3.2-1.9h10.8c2,0,1.2-1.3,1.2-3.2v-9.9c0-2.7,0.1-2.1,2.9-2.1
		c1.2,0,6.6-0.7,6.6,0.6v9c0,0.5-0.2,5.6,0.2,5.6h8.6c1.6,0,6-1,6,0.9C91.6,93.3,92.4,99.5,91.6,100.1L91.6,100.1z M91.6,100.1"/>
</g>
</svg>
