<?xml version="1.0" encoding="utf-8"?>
<!-- Generator: Adobe Illustrator 18.1.0, SVG Export Plug-In . SVG Version: 6.00 Build 0)  -->
<svg version="1.1" id="レイヤー_1" xmlns="http://www.w3.org/2000/svg" xmlns:xlink="http://www.w3.org/1999/xlink" x="0px"
	 y="0px" viewBox="0 0 190.4 205.2" enable-background="new 0 0 190.4 205.2" xml:space="preserve">
<g>
	<path fill="#343434" d="M190.4,204c-13.7-21-11.5-45.2-1.2-71.1c-5-1.3-9.7-2.7-14.2-4.2V79.5l10.2,0.1c-18.1-11.4-27.9-25.1-32.5-40.2
		c-5.1,17.5-15.1,31.1-30.9,39.9l9,0v24.5c-5.3-4.9-9.8-10.2-13.6-16V40.1l10.2,0.1C109.2,28.8,99.4,15.1,94.9,0
		c-5.1,17.5-15,31.1-30.9,39.9l9,0v46.5c-4.2,5.2-8.7,10.2-13.6,14.9V79.2l10.2,0.1C51.4,67.9,41.6,54.2,37.1,39.1
		C31.9,56.6,22,70.2,6.2,79l9,0v49.1c-4.8,1.6-6.3,2.1-11.6,3.3c7.6,24.3,6.8,53-3.5,73.9L190.4,204z M156.7,85.3h11.7v12.1h-11.7
		V85.3z M156.7,103.7h11.7v11.9h-11.7V103.7z M162.6,145.6l-0.1,50.9l-17.2,5.8v-54.2L162.6,145.6z M138.1,85.3h12.2v12.1h-12.2
		V85.3z M138.1,103.7h12.2v11.9h-12.2V103.7z M98.3,48.4H110v12.1H98.3V48.4z M98.3,66.8H110v11.9H98.3V66.8z M94.9,148.1h15.1v25.7
		H94.9V148.1z M94.8,177h15.1v25.7H94.8V177z M79.7,48.4h12.2v12.1H79.7V48.4z M79.7,66.8h12.2v11.9H79.7V66.8z M76.1,148.1h15.1
		v25.7H76.1V148.1z M76.1,177h15.1v25.7H76.1V177z M39.9,85.3h11.7v12.1H39.9V85.3z M39.9,103.7h11.7v11.9H39.9V103.7z M51.7,147.9
		l0.1,52.9l-21.5,1.5v-54.2L51.7,147.9z M21.3,85.3h12.2v12.1H21.3V85.3z M21.3,103.7h12.2v11.9H21.3V103.7z M21.3,103.7"/>
</g>
</svg>
