<?xml version="1.0" encoding="utf-8"?>
<!-- Generator: Adobe Illustrator 18.1.0, SVG Export Plug-In . SVG Version: 6.00 Build 0)  -->
<svg version="1.1" id="レイヤー_1" xmlns="http://www.w3.org/2000/svg" xmlns:xlink="http://www.w3.org/1999/xlink" x="0px"
	 y="0px" viewBox="0 0 39.8 31" enable-background="new 0 0 39.8 31" xml:space="preserve">
<g>
	<g>
		<defs>
			<rect fill="#eeeeee" id="SVGID_1_" x="0" width="39.8" height="31"/>
		</defs>
		<clipPath id="SVGID_2_">
			<use xlink:href="#SVGID_1_"  overflow="visible"/>
		</clipPath>
		<path fill="#eeeeee" clip-path="url(#SVGID_2_)" d="M39.3,0c0,0-0.1,0-0.2,0.1c-0.7,0.5-3.5,1.6-7.5,2.5C28,3.4,23,4,18.3,4.4
			C13.4,4.9,6.4,5.1,1.3,4C0.8,3.9,0.6,4,0.6,4.3c0,0.2,0.1,0.4,0.2,0.4c0.2,0.1,0.3,0.3,0.2,0.6C0.9,5.9,0.3,6.1,0,6.5
			c-0.3,0.4,1.5,0.8,2.4,0.7c1-0.2-0.3,0.6,1.3,0.6c0.9,0,0.3,1.7,1,1.7c0.2,0,1.7-0.1,4-0.2c0.4,0,0.8,0.2,0.8,0.4
			c0,0.3,0.1,0.5,0.2,0.6c0.1,0,0.3,0.2,0.3,0.4c0,0.2-0.2,0.5-0.5,0.6c-0.3,0.1-0.5,0.4-0.5,0.5c0,0.2-0.3,0.3-0.7,0.3l-3.1-0.1
			c-0.4,0-0.7,0.3-0.7,0.8l0,0.3c0.1,0.4,0.5,0.8,0.9,0.8l3.5,0c0.4,0,0.8,0.4,0.8,0.8l-0.2,4.6c0,0.4-0.4,0.8-0.8,0.8l-0.9,0
			c-0.4,0-0.9-0.1-1-0.3c-0.1-0.2-0.2-0.5-0.2-0.8c0-0.2,0.2-0.4,0.4-0.5c0.2,0,0.4-0.2,0.4-0.3c0-0.1,0.2-0.3,0.3-0.2
			c0.2,0,0.3-0.1,0.3-0.2c0-0.1-0.4-0.3-0.8-0.4L6.4,17c-0.4-0.1-1.1-0.1-1.6,0L4,17.2c-0.4,0.1-0.8,0.2-0.8,0.4
			c0,0.1,0.1,0.2,0.3,0.2c0.2,0,0.3,0.1,0.3,0.2c0,0.1,0.3,0.2,0.6,0.3c0.3,0,0.6,0.3,0.6,0.5c0,0.3-0.2,0.6-0.3,0.9
			c-0.2,0.2-0.3,0.7-0.3,1.1s0.1,0.7,0.2,0.7c0.1,0,0.2,0.4,0.3,0.8l0.1,3.1c0,0.4-0.1,1-0.3,1.2c-0.2,0.2-0.3,0.7-0.3,1
			c0,0.3,0.1,0.6,0.2,0.6c0.1,0,0.2,0.4,0.2,0.8l0,1.1c0,0.4,0.3,0.8,0.8,0.8l0.3,0c0.4,0,0.8-0.3,0.8-0.8v-0.9
			c0-0.4,0.4-0.8,0.8-0.8l0.8,0c0.4,0,0.8,0.3,0.8,0.8l0,0.7c0,0.4,0.4,0.8,0.8,0.8l1.4,0c0.4,0,0.8-0.4,0.8-0.8l0-0.9
			c0-0.4,0.3-0.8,0.7-0.8c0.4,0,0.7,0.3,0.7,0.8v0.4c0,0.4,0.4,0.8,0.8,0.8l0.4,0c0.4,0,0.8-0.3,0.8-0.8l0-0.5
			c0-0.4,0.1-0.8,0.2-0.8c0.1,0,0.2-0.3,0.1-0.7c0-0.4-0.1-0.9-0.2-1.1c-0.1-0.2-0.2-0.7-0.2-1.2l0-2.5c0-0.4,0.1-0.8,0.1-0.8
			c0.1,0,0.2-0.3,0.1-0.7c0-0.4-0.1-0.8-0.2-1c-0.1-0.2-0.2-0.5-0.2-0.7c0-0.2,0.1-0.4,0.3-0.4c0.2,0,0.4-0.1,0.4-0.2
			c0-0.1,0.2-0.3,0.4-0.3c0.2,0,0.4-0.1,0.4-0.2c0-0.1-0.3-0.3-0.8-0.4l-0.8-0.3c-0.4-0.1-1.1-0.1-1.5,0l-0.5,0.1
			c-0.4,0.1-0.8,0.3-0.8,0.4c0,0.1,0.1,0.2,0.3,0.3c0.2,0,0.3,0.2,0.3,0.3c0,0.1,0.1,0.2,0.3,0.2c0.2,0,0.3,0.3,0.3,0.6
			c0,0.3-0.4,0.6-0.8,0.5l0,0c-0.4,0-0.8-0.4-0.8-0.9v-4.5c0-0.4,0.4-0.8,0.8-0.8l12-0.6c0.4,0,0.8,0.3,0.8,0.8l-0.2,4.9
			c0,0.4-0.3,0.8-0.6,0.8c-0.3,0-0.6-0.1-0.6-0.3l0-0.3c0,0,0-0.2,0-0.6c0-0.3,0.1-0.6,0.3-0.6c0.2,0,0.4-0.1,0.4-0.3
			c0-0.2,0.2-0.3,0.3-0.3c0.1,0,0.2-0.1,0.2-0.3c0-0.1-0.3-0.3-0.8-0.5l-0.6-0.1c-0.4-0.1-1.1-0.1-1.6,0l-1.1,0.3
			c-0.4,0.1-0.8,0.3-0.8,0.4s0.2,0.2,0.4,0.2c0.2,0,0.4,0.1,0.4,0.2c0,0.2,0.2,0.3,0.3,0.4c0.2,0.1,0.4,0.3,0.4,0.6
			c0,0.3,0,0.7-0.1,0.9c-0.1,0.2-0.1,0.7-0.1,1.2c0,0.4,0.1,0.9,0.1,1c0.1,0.1,0.1,0.6,0.1,1l0.1,3c0,0.4-0.1,1-0.2,1.2
			c-0.1,0.2-0.2,0.7-0.1,1.1c0,0.4,0.1,0.8,0.2,0.8c0.1,0,0.1,0.4,0.1,0.8l0,0.3c0,0.4,0.3,0.8,0.7,0.8h0.9c0.4,0,0.8-0.4,0.8-0.8
			v-0.3c0-0.4,0.3-0.8,0.6-0.8c0.3,0,0.6,0.4,0.6,0.8v0.2c0,0.4,0.4,0.8,0.8,0.8h1.8c0.4,0,0.8-0.4,0.7-0.8l0-0.4
			c0-0.4,0.2-0.8,0.5-0.8c0.3,0,0.6,0.4,0.6,0.8l0,0.3c0,0.4,0.4,0.8,0.8,0.8h0.5c0.4,0,0.8-0.4,0.7-0.8l0-0.5c0-0.4,0-0.8,0-0.8
			c0.1,0,0.1-0.4,0.1-0.8c0-0.4-0.1-0.9-0.2-1.1c-0.1-0.2-0.2-0.8-0.2-1.2l0.1-5.6c0-0.4,0.2-0.9,0.3-0.9c0.2-0.1,0.3-0.3,0.3-0.4
			c0-0.2,0.1-0.3,0.2-0.3c0.1,0,0.2-0.1,0.2-0.3s-0.4-0.4-0.8-0.5l-0.5-0.1c-0.4-0.1-1.1-0.1-1.6,0l-1,0.2c-0.4,0.1-0.8,0.3-0.7,0.3
			c0,0.1,0.2,0.2,0.4,0.2c0.2,0,0.3,0.2,0.3,0.3c0,0.1,0.2,0.3,0.4,0.4c0.2,0.1,0.4,0.3,0.4,0.5c0,0.2-0.1,0.5-0.2,0.7
			c-0.1,0.1-0.4,0.3-0.8,0.3c-0.4,0-0.8-0.3-0.9-0.7l-0.5-2.4c-0.1-0.4-0.2-1.1-0.2-1.6l0-1.3c0-0.4,0.3-0.8,0.8-0.8l5.1-0.3
			c0.4,0,0.8-0.4,0.8-0.8l0-0.9c0-0.4-0.3-0.8-0.8-0.7l-3.7,0.5c-0.4,0.1-1.1-0.1-1.5-0.3l-0.3-0.2c-0.4-0.2-0.7-0.6-0.7-0.8
			c0-0.2,0.1-0.4,0.3-0.4c0.2,0,0.3-0.3,0.3-0.5c0-0.3,0.4-0.5,0.8-0.5c2.5-0.2,4.4-0.3,5.3-0.4c0.2,0,0.1-0.8,0.5-1.5
			c0.3-0.7,3.2-1,4-1.6c0.7-0.5-0.1-1.8-0.2-2.7c0-0.2,0.7-0.3,0.7-0.4C38.9,0.7,39.4,0,39.3,0L39.3,0z M8.9,26.3
			c-0.1,0.2-0.6,0.3-1,0.4l-0.1,0c-0.4,0-0.9-0.1-1-0.3c-0.1-0.2-0.2-0.7-0.2-1.1l-0.1-2.7c0-0.4,0.3-0.8,0.8-0.8l1.1,0
			c0.4,0,0.8,0.3,0.8,0.8v2.7C9.2,25.6,9.1,26.1,8.9,26.3L8.9,26.3z M12.5,21.7l0.2,0c0.4,0,0.8,0.3,0.8,0.8l0,2.6
			c0,0.4,0,0.9-0.1,1.1c-0.1,0.2-0.4,0.3-0.8,0.3c-0.4,0-0.7-0.2-0.8-0.3c-0.1-0.1-0.1-0.6-0.1-1.1v-2.5
			C11.7,22.1,12,21.7,12.5,21.7L12.5,21.7z M16,11.7l-2.3,0.1c-0.4,0-0.8-0.1-0.8-0.2c0-0.2-0.2-0.4-0.5-0.6
			c-0.3-0.1-0.5-0.4-0.5-0.6c0-0.2,0.1-0.3,0.3-0.3c0.2,0,0.3-0.3,0.3-0.6c0-0.3,0.4-0.6,0.8-0.6c0.7,0,1.4-0.1,2.2-0.1
			c0.4,0,0.9,0.3,1,0.7l0.3,1.3C16.8,11.3,16.5,11.7,16,11.7L16,11.7z M24.7,26.6c-0.2,0-0.5-0.2-0.5-0.3c0-0.1-0.1-0.6-0.1-1.1
			l-0.1-3c0-0.4,0.2-0.8,0.6-0.8c0.3,0,0.6,0.4,0.6,0.8l0,3.6C25.1,26.3,25,26.7,24.7,26.6L24.7,26.6z M24.8,10.3L24.8,10.3
			c-0.4,0.2-0.8,0.4-0.7,0.6c0,0.1-0.3,0.3-0.8,0.3l-2.4,0.1c-0.4,0-0.7-0.3-0.6-0.7l0.3-1.4c0.1-0.4,0.5-0.8,1-0.8
			c0.8-0.1,1.7-0.1,2.5-0.2c0.4,0,0.8,0.2,0.9,0.5c0,0.3,0.2,0.5,0.3,0.5c0.1,0,0.3,0.2,0.3,0.4C25.5,9.9,25.2,10.2,24.8,10.3
			L24.8,10.3z M29.2,21.5c0.4,0,0.7,0.3,0.7,0.7l0.1,3c0,0.4-0.1,0.9-0.2,1.1c-0.1,0.2-0.4,0.3-0.7,0.3c-0.3,0-0.5-0.4-0.5-0.8
			l-0.1-3.4C28.5,21.9,28.8,21.5,29.2,21.5L29.2,21.5z M29.2,21.5"/>
	</g>
</g>
</svg>
