<?xml version="1.0" encoding="utf-8"?>
<!-- Generator: Adobe Illustrator 18.1.0, SVG Export Plug-In . SVG Version: 6.00 Build 0)  -->
<svg version="1.1" id="レイヤー_1" xmlns="http://www.w3.org/2000/svg" xmlns:xlink="http://www.w3.org/1999/xlink" x="0px"
	 y="0px" viewBox="0 0 40 21" enable-background="new 0 0 40 21" xml:space="preserve">
<g>
	<g>
		<defs>
			<rect id="SVGID_1_" x="0" width="39.8" height="21"/>
		</defs>
		<clipPath id="SVGID_2_">
			<use xlink:href="#SVGID_1_"  overflow="visible"/>
		</clipPath>
		<path fill="#eeeeee" clip-path="url(#SVGID_2_)" d="M34.4,8c0,2.2-1.8,4-4,4c-2.2,0-4-1.8-4-4c0-2.2,1.8-4,4-4C32.6,4,34.4,5.8,34.4,8L34.4,8z
			 M34.4,8"/>
		<path fill="#eeeeee" clip-path="url(#SVGID_2_)" d="M35.5,1.9C34.1,0.7,32.3,0,30.4,0c-1.9,0-3.7,0.7-5.1,1.8H4.8C2.2,1.8,0,4,0,6.6V13
			c0,2.6,2.2,4.8,4.8,4.8v1.4c0,0.4,0.4,0.8,0.8,0.8h2.6C8.7,20,9,19.7,9,19.2v-1.4H31v1.4c0,0.4,0.4,0.8,0.8,0.8h2.6
			c0.4,0,0.8-0.4,0.8-0.8v-1.4c2.6,0,4.8-2.2,4.8-4.8V6.6C40,4.1,38,2,35.5,1.9L35.5,1.9z M5.6,13c0,0.4-0.6,0.8-1.4,0.8
			S2.9,13.5,2.9,13V6.6c0-0.4,0.6-0.8,1.4-0.8s1.4,0.4,1.4,0.8V13z M9.9,13c0,0.4-0.6,0.8-1.4,0.8c-0.7,0-1.4-0.4-1.4-0.8V6.6
			c0-0.4,0.6-0.8,1.4-0.8c0.7,0,1.4,0.4,1.4,0.8V13z M14.1,13c0,0.4-0.6,0.8-1.4,0.8c-0.7,0-1.4-0.4-1.4-0.8V6.6
			c0-0.4,0.6-0.8,1.4-0.8c0.7,0,1.4,0.4,1.4,0.8V13z M30.4,13.6c-3.1,0-5.6-2.5-5.6-5.6c0-3.1,2.5-5.6,5.6-5.6C33.5,2.4,36,4.9,36,8
			C36,11.1,33.5,13.6,30.4,13.6L30.4,13.6z M30.4,13.6"/>
	</g>
</g>
</svg>
