<?xml version="1.0" encoding="utf-8"?>
<!-- Generator: Adobe Illustrator 18.1.0, SVG Export Plug-In . SVG Version: 6.00 Build 0)  -->
<svg version="1.1" id="レイヤー_1" xmlns="http://www.w3.org/2000/svg" xmlns:xlink="http://www.w3.org/1999/xlink" x="0px"
	 y="0px" viewBox="0 0 14.4 25.3" enable-background="new 0 0 14.4 25.3" xml:space="preserve">
<g>
	<path fill="#eeeeee" d="M12.5,0H1.8C0.8,0,0,0.8,0,1.8v21.7c0,1,0.8,1.8,1.8,1.8h10.7c1,0,1.8-0.8,1.8-1.8V1.8C14.4,0.8,13.5,0,12.5,0L12.5,0z
		 M13,20.5H1.4V3.1H13V20.5z M9.6,1.9H4.7V1.3h4.9L9.6,1.9L9.6,1.9z M11.8,1.6c0,0.3-0.2,0.5-0.5,0.5s-0.5-0.2-0.5-0.5
		c0-0.3,0.2-0.5,0.5-0.5S11.8,1.4,11.8,1.6L11.8,1.6z M9.4,23.4H4.9V22h4.5V23.4z M9.4,23.4"/>
</g>
</svg>
