<?xml version="1.0" encoding="utf-8"?>
<!-- Generator: Adobe Illustrator 18.1.0, SVG Export Plug-In . SVG Version: 6.00 Build 0)  -->
<svg version="1.1" id="レイヤー_1" xmlns="http://www.w3.org/2000/svg" xmlns:xlink="http://www.w3.org/1999/xlink" x="0px"
	 y="0px" viewBox="0 0 50.4 65" enable-background="new 0 0 50.4 65" xml:space="preserve">
<g>
	<path fill="#020202" d="M49.2,0H1.2C0.6,0,0,0.6,0,1.2v62.6C0,64.5,0.6,65,1.2,65h47.9c0.7,0,1.2-0.6,1.2-1.2V1.2
		C50.4,0.6,49.9,0,49.2,0L49.2,0z M36.9,25.7h6.3v1.9h-6.3V25.7z M36.9,31.4h6.3v1.9h-6.3V31.4z M36.9,37.4h6.3v1.9h-6.3V37.4z
		 M30.5,14.5h1.9v6.3h-1.9V14.5z M24.8,14.5h1.9v6.3h-1.9V14.5z M18.8,14.5h1.9v6.3h-1.9V14.5z M5,2.2c1.6,0,2.9,1.3,2.9,2.9
		C7.9,6.7,6.6,8,5,8C3.4,8,2.1,6.7,2.1,5.1C2.1,3.5,3.4,2.2,5,2.2L5,2.2z M5,62.7c-1.6,0-2.9-1.3-2.9-2.9c0-1.6,1.3-2.9,2.9-2.9
		c1.6,0,2.9,1.3,2.9,2.9C7.9,61.4,6.6,62.7,5,62.7L5,62.7z M13.5,39.3H7.2v-1.9h6.3V39.3z M13.5,33.3H7.2v-1.9h6.3V33.3z M13.5,27.6
		H7.2v-1.9h6.3V27.6z M19.1,64.4H17v-3.8h2.1V64.4z M23.7,64.4h-2.1v-3.8h2.1V64.4z M28.3,64.4h-2.1v-3.8h2.1V64.4z M33,64.4h-2.1
		v-3.8H33V64.4z M37.6,64.4h-2.1v-3.8h2.1V64.4z M40.1,59.1H14.8v-1.6h23.7v-9.6l-4.2-5.5c-0.1,0-0.2,0-0.3,0H17.1
		c-0.8,0-1.5-0.7-1.5-1.5V24.1c0-0.8,0.7-1.5,1.5-1.5H34c0.8,0,1.5,0.7,1.5,1.5V41c0,0.1,0,0.2,0,0.3l4.7,6V59.1z M18.8,50.6v-6.3
		h1.9v6.3H18.8z M24.8,50.6v-6.3h1.9v6.3H24.8z M30.5,50.6v-6.3h1.9v6.3H30.5z M46,62.7c-1.6,0-2.9-1.3-2.9-2.9
		c0-1.6,1.3-2.9,2.9-2.9c1.6,0,2.9,1.3,2.9,2.9C48.9,61.4,47.6,62.7,46,62.7L46,62.7z M46,8c-1.6,0-2.9-1.3-2.9-2.9
		c0-1.6,1.3-2.9,2.9-2.9c1.6,0,2.9,1.3,2.9,2.9C48.9,6.7,47.6,8,46,8L46,8z M46,8"/>
</g>
</svg>
