<?xml version="1.0" encoding="utf-8"?>
<!-- Generator: Adobe Illustrator 18.1.0, SVG Export Plug-In . SVG Version: 6.00 Build 0)  -->
<svg version="1.1" id="レイヤー_1" xmlns="http://www.w3.org/2000/svg" xmlns:xlink="http://www.w3.org/1999/xlink" x="0px"
	 y="0px" viewBox="0 0 22.9 12" enable-background="new 0 0 22.9 12" xml:space="preserve">
<g>
	<g>
		<defs>
			<rect id="SVGID_1_" x="0" width="22.8" height="12"/>
		</defs>
		<clipPath id="SVGID_2_">
			<use xlink:href="#SVGID_1_"  overflow="visible"/>
		</clipPath>
		<path clip-path="url(#SVGID_2_)" d="M22.1,4.5C19.9,2.7,16.2,0.1,11.5,0h0C6.8,0.1,3.1,2.7,0.8,4.5C0.7,4.6,0,5.1,0,5.8
			C0,6.3,0.2,6.7,0.6,7c1.8,1.7,5.7,4.8,10.9,4.9h0c5.2,0,9.1-3.1,10.9-4.9c0.3-0.3,0.6-0.7,0.6-1.2C22.9,5.1,22.2,4.6,22.1,4.5
			L22.1,4.5z M11.5,10.6c-2.5,0-4.6-2.1-4.6-4.6c0-2.5,2-4.6,4.6-4.6C14,1.4,16,3.4,16,5.9C16,8.5,14,10.5,11.5,10.6L11.5,10.6z
			 M11.5,10.6"/>
	</g>
	<path d="M11.5,4.2C11.5,4.2,11.5,4.2,11.5,4.2L11.5,4.2c-1,0-1.8,0.8-1.8,1.8c0,1,0.8,1.8,1.7,1.8c0,0,0,0,0,0s0,0,0,0
		c1,0,1.7-0.8,1.7-1.8C13.2,5,12.4,4.2,11.5,4.2L11.5,4.2z M11.5,4.2"/>
</g>
</svg>
