<?xml version="1.0" encoding="utf-8"?>
<svg version="1.1" xmlns="http://www.w3.org/2000/svg" xmlns:xlink="http://www.w3.org/1999/xlink" x="0px"
	 y="0px" viewBox="0 0 206.4 206" enable-background="new 0 0 206.4 206" xml:space="preserve">
<g>
	<path fill="#ababab" d="M103.7,178.3l0.5,3l-29.7-7.4l-28-7l1.7-2.5l26.9,6.7L103.7,178.3z M45.5,163.8l-15.7-26.1L14,111.5l0.1-0.3l-3,0.5L11,112
		l16.4,27.1l16.3,27.1l0.8,0.2l1.7-2.5L45.5,163.8z M21.4,81.9l7-28.1l-2.4-1.9l-7.3,29.3l-7,28l3-0.5L21.4,81.9z M110.6,28.1
		l26.2,6.5l1.7-2.5l-27.3-6.8L81.6,18l0.5,3L110.6,28.1z M167.1,118.1l7.6-30.8l-0.2-0.3l-3,0.5l0.2,0.3l-7.3,29.6L157,147l-3.1,1.9
		l2.4,1.9l3.2-1.9L167.1,118.1z M54.9,36.5l25.2-15.2l-0.5-3L53.4,34.1L26.8,50.2l2.4,1.9L54.9,36.5z M130.9,162.8L105.7,178l0.5,3
		l26.3-15.8l22.2-13.4l-2.4-1.9L130.9,162.8z M140.3,35.5L156,61.6l14.3,23.7l3-0.5l-14.9-24.7L142.1,33l-1.4-0.4l-1.7,2.5
		L140.3,35.5z M33.7,85l5.6-22.6l-1.2-0.9l-5.8,23.2L26.8,107l1.5-0.2L33.7,85z M61.4,47.4l20.7-12.5l-0.2-1.5L60.7,46.2l-22,13.2
		l1.2,0.9L61.4,47.4z M107.6,40.5l21.5,5.3l0.9-1.2l-22-5.5l-24.1-6l0.2,1.5L107.6,40.5z M53.7,152.7l-13-21.6l-13-21.6l0.1-0.3
		l-1.5,0.2l-0.1,0.3l13.3,22.1L52.8,154l0.4,0.1l0.9-1.2L53.7,152.7z M158.2,89.8l-6.1,24.5l-6.1,24.5l-2.8,1.7l1.2,0.9l2.9-1.7
		l6.2-25.1l6.2-25.1l-0.2-0.3l-1.5,0.2L158.2,89.8z M78.2,158.8L56,153.3l-0.9,1.2l22.7,5.6l24.1,6l-0.2-1.5L78.2,158.8z
		 M132.1,46.6l13,21.6l11.6,19.2l1.5-0.2l-11.9-19.7L133,45.3l-1.1-0.3l-0.9,1.2L132.1,46.6z M124.4,151.9l-20.7,12.5l0.2,1.5
		l21.2-12.8l17.5-10.6l-1.2-0.9L124.4,151.9z M105.2,50l17.8,4.4l0.9-1.2l-18.3-4.6l-20.1-5l0.2,1.5L105.2,50z M48.4,66.8l18.1-10.9
		l17.3-10.4l-0.2-1.5L65.8,54.6L47.1,65.9l0,0.1l1.2,1L48.4,66.8z M147.6,91.4l-5.1,20.6l-5.1,20.6l-2.6,1.6l1.2,0.9l2.6-1.6
		l5.2-21.1l5.2-21.1l-0.2-0.3l-1.5,0.2L147.6,91.4z M125.8,55.1l10.9,18.1l9.5,15.7l1.5-0.2l-9.8-16.2l-11.2-18.7l-0.8-0.2l-0.9,1.2
		L125.8,55.1z M80.6,149.3l-18.5-4.6l-0.9,1.2l19,4.7l20.1,5l-0.2-1.5L80.6,149.3z M119.3,143.5L102,153.9l0.2,1.5l17.8-10.7
		l14.3-8.6l-1.2-0.9L119.3,143.5z M60,144.2L49.1,126l-10.9-18.1l0.1-0.3l-1.5,0.2l-0.1,0.3l11.2,18.7l11.2,18.6l0.1,0L60,144.2
		L60,144.2z M43.2,87.3L47.8,69L46.6,68l-4.7,19l-4.6,18.4l1.5-0.2L43.2,87.3z M120.2,62.6l-0.5-0.1L118,65l0.4,0.1l15.5,25.8l3-0.5
		l-7.6-12.7L120.2,62.6z M102.5,61.1l13.5,3.4l1.7-2.5l-14.6-3.6l-16.1-4l0.5,3L102.5,61.1z M58.3,74.1l14.1-8.5l13.2-7.9l-0.5-3
		l-14.2,8.5l-15.1,9.1l-0.1,0.4l2.4,1.9L58.3,74.1z M135.4,93.3l-4,16l-4,16l-2.3,1.4l2.4,1.9l2.4-1.4l4.3-17.1l4.2-17.1l-0.2-0.3
		l-3,0.5L135.4,93.3z M54.4,90.1l3.3-13.5l-2.4-1.9l-3.6,14.7L48,103.8l3-0.5L54.4,90.1z M58.9,120.1l-8.5-14.1l0.1-0.3l-3,0.5
		l-0.1,0.3l9.1,15.1l9,14.9l1.8-2.5L58.9,120.1z M83.3,138.2l-14.2-3.5l-1.7,2.5l15.3,3.8l16.1,4l-0.5-3L83.3,138.2z M113.4,133.7
		l-13.2,7.9l0.5,3l14.2-8.6l10.9-6.6l-2.4-1.9L113.4,133.7z M64.9,92.7l2.2-8.8L65.9,83l-2.3,9.4l-2.3,9.4l1.5-0.2L64.9,92.7z
		 M85.9,127.6l-10.1-2.5l-0.9,1.2l10.6,2.6l11.1,2.8l-0.2-1.5L85.9,127.6z M68.2,114.5l-6.1-10.2l0.1-0.3l-1.5,0.2l-0.1,0.3
		l6.5,10.7l6.2,10.2l0.9-1.3L68.2,114.5z M67.8,81.1L78,75l9.3-5.6l-0.2-1.5l-9.8,5.9l-10.7,6.4L66.4,81l1.2,0.9L67.8,81.1z
		 M123.7,95l-2.9,11.6l-2.9,11.6l-2,1.2l1.2,0.9l2.1-1.2l3-12.1l3-12.1l-0.2-0.3l-1.5,0.2L123.7,95z M107.7,124.3l-9.3,5.6l0.2,1.5
		l9.8-5.9l6.9-4.1l-1.2-0.9L107.7,124.3z M111.4,74.6l6.2,10.2l4.7,7.8l1.5-0.2l-5-8.3l-6.5-10.7l-0.2,0l-0.9,1.2L111.4,74.6z
		 M89,67.6l0.2,1.5l10.6,2.6l9.4,2.3l0.9-1.2l-10-2.5L89,67.6z M87.9,119.8l-7.1-1.8l-0.9,1.2l7.6,1.9l7.9,2l-0.2-1.5L87.9,119.8z
		 M75.1,110.4l-4.4-7.4l0.1-0.3l-1.5,0.2l-0.1,0.3l4.7,7.9l4.3,7.2l0.9-1.3L75.1,110.4z M73.6,85.4l-0.2,0.9l1.2,0.9l0.2-1l7.4-4.4
		l6.5-3.9l-0.2-1.5l-7,4.2L73.6,85.4z M115.1,96.3l-2.1,8.3L111,113l-1.9,1.1l1.2,0.9l1.9-1.1l2.2-8.9l2.2-8.9l-0.2-0.3l-1.5,0.2
		L115.1,96.3z M110.7,89l3,5l1.5-0.2l-3.3-5.5l-4.7-7.8l-0.9,1.3L110.7,89z M103.6,117.4l-6.5,3.9l0.2,1.5l7-4.2l4.2-2.5l-1.2-0.9
		L103.6,117.4z M97.9,79.5l6.4,1.6l0.9-1.2l-7-1.7l-7.9-2l0.2,1.5L97.9,79.5z M72.8,94.7l1.3-5.3l-1.2-0.9l-1.5,5.9l-1.5,6.2
		l1.5-0.2L72.8,94.7z M78.7,99.2l3-0.5l0.4-1.7l0.3-1.2L80,93.9l-0.6,2.4L78.7,99.2z M83.2,92.5l3.9-2.4l3-1.8l-0.5-3l-4,2.4l-4.9,3
		l-0.3,1.2l2.4,1.9L83.2,92.5z M95.6,88.9l2.8,0.7l1.7-2.5l-3.9-1L91.7,85l0.5,3L95.6,88.9z M102.4,93.9l0.9,1.5l3-0.5l-1.5-2.5
		l-2.8-4.7l-1.8,2.5L102.4,93.9z M83.4,105.4l-2.4-3.9l0.1-0.3l-3,0.5l-0.1,0.3l3,4.9l2.4,4.1l1.8-2.5L83.4,105.4z M104.8,97.9
		l-1.1,4.5l-1.1,4.5l-1.6,1l2.4,1.9l1.7-1l1.4-5.6l1.4-5.6l-0.2-0.3l-3,0.5L104.8,97.9z M90.2,110.4l-3.5-0.9L85,112l4.6,1.1
		l4.6,1.1l-0.5-3L90.2,110.4z M98.6,109.2l-3,1.8l0.5,3l4-2.4l1.5-0.9l-2.4-1.9L98.6,109.2z M80.6,17.8l1,0.3L78.9,0L77,0.3l2.7,18
		l0.4-0.2L80.6,17.8z M104.2,181.3l3.7,24.7l1.9-0.3l-3.7-24.7l-0.9,0.5L104.2,181.3z M102.9,166.4l-1-0.3l1.8,12.1l1,0.3l0.9-0.5
		l-1.8-12.1L102.9,166.4z M82.6,33l0.3-0.2l1,0.3L82,21l-1-0.2l-0.9,0.5l1.8,12.1L82.6,33z M84.2,43.6l0.3-0.1l1,0.2l-1.4-9l-1-0.2
		l-0.9,0.5l1.4,9L84.2,43.6z M101.4,155.9l-1-0.3l1.4,9l1,0.3l0.9-0.5l-1.4-9L101.4,155.9z M99.7,145.2l-1-0.3l1.4,9.2l1,0.2
		l0.9-0.5l-1.4-9.2L99.7,145.2z M85.5,54.4l0.5-0.3l1,0.3l-1.4-9.2l-1-0.3l-0.9,0.5l1.4,9.2L85.5,54.4z M87.8,67.5l0.2-0.1l1,0.3
		l-1.5-10.2l-1-0.3l-0.9,0.5l1.5,10.2L87.8,67.5z M97.8,132l-1-0.3l1.5,10.2l1,0.3l0.9-0.5l-1.5-10.2L97.8,132z M96.5,123.4l-1-0.3
		l1.1,7.1l1,0.2l0.9-0.5l-1.1-7.1L96.5,123.4z M87.4,69.4l1.1,7.1l0.6-0.4l0.2-0.1l1,0.3l-1.1-7.1l-1-0.3L87.4,69.4z M95.1,114.6
		l-1-0.2l1.1,7.3l1,0.3l0.9-0.5L96,114L95.1,114.6z M90.1,85.1l0.5-0.3l1,0.3l-1.1-7.3l-1-0.2L88.7,78l1.1,7.3L90.1,85.1z
		 M92.5,103.7l1.1,7.6l1,0.3l0.9-0.5l-0.8-5.6L92.5,103.7z M93.2,97l0.2-0.3L92.1,88l-1-0.2l-0.9,0.5l1.3,8.9L93.2,97z M94.3,102.6
		l-0.5-3.2l-1.3,1.8L94.3,102.6z M205.9,80.2l0.3,1.9l-31.7,4.8l0.1,0.1l31.8-4.8l-0.3-2.3l-32.7,4.9l0.1,0.2L205.9,80.2z
		 M0.5,113.1l-0.3-1.9l11.4-1.7l0-0.2L0,111l0.3,2.2l0.2,0l10.6-1.6l0-0.2L0.5,113.1z M26.2,109.2L14.1,111l0,0.2l12.1-1.8
		L26.2,109.2z M159.4,89.2l0.1,0.1l12.1-1.8l-0.1-0.2L159.4,89.2z M26.8,107l-12.1,1.8l0,0.2l12.1-1.8L26.8,107z M158.3,87.4
		l12.1-1.8l-0.1-0.2l-12.1,1.8L158.3,87.4z M37.3,105.4l-9,1.4l0,0.2l9-1.4L37.3,105.4z M36.8,107.6l-9,1.4l0,0.2l9-1.4L36.8,107.6z
		 M149,90.9l9-1.4l-0.1-0.1l-9,1.4L149,90.9z M147.8,88.9l9-1.4l-0.1-0.2l-9,1.4L147.8,88.9z M48,103.8l-9.2,1.4l0,0.2L48,104
		L48,103.8z M137,90.4l0.1,0.2l9.2-1.4l-0.1-0.2L137,90.4z M138.2,92.5l9.2-1.4l-0.1-0.2l-9.2,1.4L138.2,92.5z M47.5,106l-9.2,1.4
		l0,0.2l9.2-1.4L47.5,106z M125,94.5l10.2-1.5l-0.1-0.1L125,94.3L125,94.5z M123.9,92.6L134,91l-0.1-0.2l-10.2,1.5L123.9,92.6z
		 M61.2,101.8l-10.2,1.5l0,0.2l10.2-1.5L61.2,101.8z M60.7,104l-10.2,1.5l0,0.2l10.2-1.5L60.7,104z M115.3,93.8l7.1-1.1l-0.1-0.2
		l-7.1,1.1L115.3,93.8z M116.4,95.8l7.1-1.1l-0.1-0.1l-7.1,1.1L116.4,95.8z M69.9,100.5l-7.1,1.1l0,0.2l7.1-1.1L69.9,100.5z
		 M69.3,102.7l-7.1,1.1l0,0.2l7.1-1.1L69.3,102.7z M78.7,99.2l-7.3,1.1l0,0.2l7.3-1.1L78.7,99.2z M106.4,95.2l7.3-1.1l-0.1-0.2
		l-7.3,1.1L106.4,95.2z M78.1,101.4l-7.3,1.1l0,0.2l7.3-1.1L78.1,101.4z M107.6,97.1l7.3-1.1l-0.1-0.2l-7.3,1.1L107.6,97.1z
		 M95.7,96.8l7.8-1.2l-0.1-0.2l-7.5,1.1L95.7,96.8z M87.7,100l-6.6,1l0,0.2l6.8-1L87.7,100z M85.6,98.3l-0.2-0.1l-3.7,0.6l0,0.2
		L85.6,98.3z M90.5,99.7l0.8-0.1l0.1-0.2l-1.1,0.2L90.5,99.7z M94,99.2l10.6-1.6l-0.1-0.1L94.1,99L94,99.2z M91.6,97.4l0-0.2
		l-3.5,0.5l0.2,0.1L91.6,97.4z M11.2,111.3l0,0.2l3-0.5l0-0.2L11.2,111.3z M173.5,85.3l-0.1-0.2l-3,0.5l0.1,0.2L173.5,85.3z
		 M14.6,109.2l0-0.2l-3,0.5l0,0.2L14.6,109.2z M171.4,87.2l0.1,0.2l3-0.5l-0.1-0.2L171.4,87.2z M157.8,89.2l0.1,0.2l1.5-0.2
		l-0.1-0.2L157.8,89.2z M156.9,87.8l1.5-0.2l-0.1-0.2l-1.5,0.2L156.9,87.8z M27.8,108.8l-1.5,0.2l0,0.2l1.5-0.2L27.8,108.8z
		 M28.2,106.9l-1.5,0.2l0,0.2l1.5-0.2L28.2,106.9z M147.4,91l1.5-0.2l-0.1-0.2l-1.5,0.2L147.4,91z M38.3,107.2l-1.5,0.2l0,0.2
		l1.5-0.2L38.3,107.2z M146.3,89.2l0.1,0.2l1.5-0.2l-0.1-0.2L146.3,89.2z M38.8,105.4l-1.5,0.2l0,0.2l1.5-0.2L38.8,105.4z
		 M134.1,91.2l3-0.5l-0.1-0.2l-3,0.5L134.1,91.2z M135.1,92.8l3-0.5l-0.1-0.2l-3,0.5L135.1,92.8z M50.6,105.4l-3,0.5l0,0.2l3-0.5
		L50.6,105.4z M51,103.5l-3,0.5l0,0.2l3-0.5L51,103.5z M62.7,101.8l-1.5,0.2l0,0.2l1.5-0.2L62.7,101.8z M122.5,92.9l1.5-0.2
		l-0.1-0.2l-1.5,0.2L122.5,92.9z M123.4,94.6l1.5-0.2l-0.1-0.2l-1.5,0.2L123.4,94.6z M62.2,103.6l-1.5,0.2l0,0.2l1.5-0.2L62.2,103.6
		z M114.8,95.9l1.5-0.2l-0.1-0.2l-1.5,0.2L114.8,95.9z M70.8,102.3l-1.5,0.2l0,0.2l1.5-0.2L70.8,102.3z M113.8,94.2l1.5-0.2
		l-0.1-0.2l-1.5,0.2L113.8,94.2z M71.3,100.5l-1.5,0.2l0,0.2l1.5-0.2L71.3,100.5z M104.5,97.4l3-0.5l-0.1-0.2l-3,0.5L104.5,97.4z
		 M81.6,98.9l-3,0.5l0,0.2l3-0.5L81.6,98.9z M103.5,95.8l3-0.5l-0.1-0.2l-3,0.5L103.5,95.8z M81.2,100.8l-3,0.5l0,0.2l3-0.5
		L81.2,100.8z M92.9,97.4l0.1-0.2l-1.5,0.2l0,0.2L92.9,97.4z M206,82l-0.2-1.6l-32.3,4.9l0.9,1.5L206,82z M0.4,111.3l0.2,1.6
		l10.5-1.6l0.4-1.7L0.4,111.3z M14.6,109.2l-0.4,1.7l12.1-1.8l0.4-1.7L14.6,109.2z M171.4,87.2l-0.9-1.5l-12.1,1.8l0.9,1.5
		L171.4,87.2z M37.2,105.8l-9,1.4l-0.4,1.7l9-1.4L37.2,105.8z M147.9,89.1l0.9,1.5l9-1.4l-0.9-1.5L147.9,89.1z M138.1,92.2l9.2-1.4
		l-0.9-1.5l-9.2,1.4L138.1,92.2z M47.9,104.1l-9.2,1.4l-0.4,1.7l9.2-1.4L47.9,104.1z M61.2,102.2L51,103.7l-0.4,1.7l10.2-1.5
		L61.2,102.2z M124.9,94.2l10.2-1.5l-0.9-1.5L124,92.7L124.9,94.2z M69.8,100.9l-7.1,1.1l-0.4,1.7l7.1-1.1L69.8,100.9z M116.2,95.5
		l7.1-1.1l-0.9-1.5l-7.1,1.1L116.2,95.5z M78.6,99.5l-7.3,1.1l-0.4,1.7l7.3-1.1L78.6,99.5z M107.4,96.8l7.3-1.1l-0.9-1.5l-7.3,1.1
		L107.4,96.8z M94.3,98.8l10.1-1.5l-0.9-1.5l-8,1.2L94.3,98.8z M91.6,99.2l0.2-0.2l-0.2-1.4l-3.2,0.5l1.7,1.4L91.6,99.2z M85.8,98.4
		l-4.2,0.6l-0.4,1.7l6.4-1L85.8,98.4z M32.3,183.8l1.6,1.1L46.5,167l-2-0.5L32.3,183.8z M153.3,14.6l-1.6-1.1l-13.1,18.7l2,0.5
		L153.3,14.6z M131.9,45.1l7-9.9l-2-0.5l-7,9.9L131.9,45.1z M53.1,154.1l-7,9.9l2,0.5l7-9.9L53.1,154.1z M59.2,145.4l-5.2,7.4l2,0.5
		l5.2-7.4L59.2,145.4z M125.9,53.7l5.2-7.4l-2-0.5l-5.2,7.4L125.9,53.7z M65.5,136.7l-0.1-0.2l-5.4,7.7l2,0.5l5.3-7.6L65.5,136.7z
		 M119.7,62.5l5.3-7.6l-2-0.5l-5.3,7.6L119.7,62.5z M110.1,72.8l2,0.5L118,65l-2-0.5L110.1,72.8z M73.5,126l-0.3-0.5l-6,8.5l0.1,0.2
		l1.8,0.4l5.9-8.3L73.5,126z M107.1,80.4L107.1,80.4l4.1-5.8l-2-0.5l-4.1,5.8L107.1,80.4z M78.6,118.9l-0.4-0.7l-4.2,5.9l0.3,0.5
		l1.5,0.4l4.1-5.8L78.6,118.9z M101.8,87.5l0.1,0.3l4.3-6.1l0-0.1l-1.9-0.5l-4.2,6L101.8,87.5z M83.9,111.8l-0.5-0.9l-4.3,6.1
		l0.4,0.7l1.2,0.3l4.2-6L83.9,111.8z M93.8,99.4l0.2-0.3l-0.2,0L93.8,99.4z M92.1,100.9l-0.2-1.4l-0.5,0.1l-0.4,0.5L92.1,100.9z
		 M89.9,101.6l-4.7,6.7l0.6,0.9l1,0.2l4.7-6.7L89.9,101.6z M93.5,96.9l2.4-0.4l4.4-6.3L100,90l-1.7-0.4l-5,7.1L93.5,96.9z
		 M93.5,97.1l0-0.2l-0.3,0L93,97.2L93.5,97.1z M93.5,97.3l2-0.3l0.1-0.2l-2.2,0.3L93.5,97.3z M91.5,99.4l0.4-0.1l0,0.2l1.9-0.3
		l0-0.2l-1.9,0.3l0-0.2l-0.2,0L91.5,99.4z M93.8,99l0.4-0.1l0.1-0.2l-0.5,0.1L93.8,99z M91.8,98.9l0,0.2l1.9-0.3l-0.2-1.6l-0.6,0.1
		L91.8,98.9z M171.7,165.1l1.2-1.5l-16.5-12.8l-1.8,1.1L171.7,165.1z M26.8,50.2L8.5,36l-1.2,1.5l18.6,14.4l0.4-1.5L26.8,50.2z
		 M142.6,142.6l9.6,7.4l1.8-1.1l-9.6-7.4L142.6,142.6z M38.6,59.5l0.1-0.1L29.2,52l-0.4,0.3l-0.4,1.6l9.8,7.6L38.6,59.5z M47.1,66
		l-7.2-5.6l-0.1,0.1l-0.5,1.9l7.3,5.7L47.1,66z M134.3,136.1l7.1,5.5l1.8-1.1L136,135L134.3,136.1z M125.8,129.5l7.3,5.7l1.8-1.1
		l-7.3-5.7L125.8,129.5z M55.8,72.7l-7.4-5.8l-0.5,2l7.4,5.8L55.8,72.7z M115.3,121.4l8,6.3l1.8-1.1l-8.1-6.2L115.3,121.4z M66.4,81
		l-8.2-6.4l-0.5,2.1l8.2,6.4L66.4,81z M73.4,86.4l-5.7-4.5L67.1,84l5.7,4.5L73.4,86.4z M108.5,116.1l5.6,4.4l1.8-1.1l-5.6-4.4
		L108.5,116.1z M101.6,110.7l5.8,4.5l1.8-1.1l-5.8-4.5L101.6,110.7z M80,93.9l0.5-2.1l-5.9-4.6l-0.5,2.1L80,93.9z M88.1,97.8l-5.1-4
		l-0.5,2.1l3,2.3L88.1,97.8z M94.7,105.4l4.4,3.4l1.8-1.1l-6.6-5.1L94.7,105.4z M91.4,102.8l1.1,0.8l-0.3-2L91.4,102.8z M90.5,99.7
		l-2.6,0.4l2,1.6l1.1-1.6L90.5,99.7z M88.4,98.1l-0.2-0.1l-2.6,0.4l0.2,0.1L88.4,98.1z M90.2,99.4l-2.6,0.4l0.2,0.1l2.6-0.4
		L90.2,99.4z M92.5,101.3l-0.4-0.3l0.1,0.8L92.5,101.3z M92.5,101.3"/>
</g>
</svg>
