<?xml version="1.0" encoding="utf-8"?>
<!-- Generator: Adobe Illustrator 18.1.0, SVG Export Plug-In . SVG Version: 6.00 Build 0)  -->
<svg version="1.1" id="レイヤー_1" xmlns="http://www.w3.org/2000/svg" xmlns:xlink="http://www.w3.org/1999/xlink" x="0px"
	 y="0px" viewBox="0 0 19.9 16" enable-background="new 0 0 19.9 16" xml:space="preserve">
<g>
	<path fill="#eeeeee" d="M13,11.8c-0.3,0-0.7-0.1-0.9-0.4c-0.6-0.7-1.5-1.1-2.4-1.1c-0.9,0-1.8,0.4-2.4,1.1C7,11.9,6.2,12,5.7,11.5
		c-0.5-0.4-0.5-1.2-0.1-1.7C6.7,8.7,8.2,8,9.8,8c1.6,0,3.1,0.7,4.1,1.8c0.4,0.5,0.4,1.2-0.1,1.7C13.6,11.7,13.3,11.8,13,11.8
		L13,11.8z M13,11.8"/>
	<g>
		<defs>
			<rect id="SVGID_1_" x="0" y="0" width="19.9" height="16"/>
		</defs>
		<clipPath id="SVGID_2_">
			<use xlink:href="#SVGID_1_"  overflow="visible"/>
		</clipPath>
		<path fill="#eeeeee" clip-path="url(#SVGID_2_)" d="M15.7,8.8c-0.3,0-0.6-0.1-0.8-0.3c-1.4-1.4-3.2-2.1-5.1-2.1
			c-1.9,0-3.7,0.7-5.1,2.1C4.2,9,3.5,9,3,8.5C2.5,8,2.5,7.3,3,6.8C4.8,5,7.2,4,9.8,4c2.6,0,5,1,6.8,2.8C17,7.3,17,8,16.6,8.5
			C16.3,8.7,16,8.8,15.7,8.8L15.7,8.8z M15.7,8.8"/>
		<path fill="#eeeeee" clip-path="url(#SVGID_2_)" d="M18.4,5.8c-0.3,0-0.6-0.1-0.8-0.3c-2.1-2-4.8-3.1-7.8-3.1
			C6.9,2.4,4.1,3.5,2,5.5C1.6,6,0.8,6,0.3,5.5c-0.5-0.5-0.4-1.2,0-1.7C2.9,1.3,6.3,0,9.8,0c3.5,0,6.9,1.3,9.4,3.8
			c0.5,0.5,0.5,1.2,0,1.7C19,5.7,18.7,5.8,18.4,5.8L18.4,5.8z M18.4,5.8"/>
	</g>
	<path fill="#eeeeee" d="M11.2,13.6c0,0.8-0.6,1.4-1.4,1.4c-0.8,0-1.4-0.6-1.4-1.4c0-0.8,0.6-1.4,1.4-1.4
		C10.6,12.2,11.2,12.8,11.2,13.6L11.2,13.6z M11.2,13.6"/>
</g>
</svg>
